<svg xmlns="http://www.w3.org/2000/svg" viewBox="0 0 160.02 72.5"><defs><style>.cls-1{fill:#00a7b6;}</style></defs><title>Asset 12</title><g id="Layer_2" data-name="Layer 2"><g id="Layer_1-2" data-name="Layer 1"><path class="cls-1" d="M3,65a1,1,0,0,1-.54.41,1,1,0,0,1,.54.41,1.61,1.61,0,0,1,.17.82v3.71q0,1.2,1.14,1.2h.41v.89H4.14a1.79,1.79,0,0,1-2.06-2V66.63q0-.76-.67-.76H.9V65h.51q.67,0,.67-.77V60.39a1.79,1.79,0,0,1,2.06-2h.55v.88H4.29q-1.14,0-1.14,1.2v3.71A1.61,1.61,0,0,1,3,65Z"/><path d="M25.24,59,21.7,69.52H20.53l-3.08-9-3.09,9H13.21L9.68,59h1.14l3,9L17,59h1l3.09,9.07L24.18,59Z"/><path d="M33.4,65.91H26.8a2.82,2.82,0,0,0,.95,2,3.14,3.14,0,0,0,2.16.76,3.41,3.41,0,0,0,1.35-.26,2.94,2.94,0,0,0,1.06-.77l.6.69a3.37,3.37,0,0,1-1.31,1,4.42,4.42,0,0,1-1.73.33,4.37,4.37,0,0,1-2.15-.52,3.73,3.73,0,0,1-1.46-1.43,4.08,4.08,0,0,1-.52-2.07,4.23,4.23,0,0,1,.5-2.07,3.64,3.64,0,0,1,1.38-1.42,3.86,3.86,0,0,1,2-.51,3.82,3.82,0,0,1,2,.51,3.62,3.62,0,0,1,1.37,1.42,4.27,4.27,0,0,1,.5,2.08Zm-5.72-2.69a2.86,2.86,0,0,0-.88,1.9h5.6a2.87,2.87,0,0,0-.88-1.9,2.9,2.9,0,0,0-3.84,0Z"/><path d="M41.76,62.07a3.59,3.59,0,0,1,1.41,1.42,4.52,4.52,0,0,1,0,4.17,3.64,3.64,0,0,1-1.41,1.42,4,4,0,0,1-2,.51A3.71,3.71,0,0,1,38,69.17,3.23,3.23,0,0,1,36.7,68v1.56h-1V58.39h1.07v4.74A3.28,3.28,0,0,1,38,62a3.72,3.72,0,0,1,1.73-.4A4,4,0,0,1,41.76,62.07Zm-.58,6.19a2.71,2.71,0,0,0,1.06-1.09,3.56,3.56,0,0,0,0-3.21,2.71,2.71,0,0,0-1.06-1.09,3.15,3.15,0,0,0-3,0,2.73,2.73,0,0,0-1,1.09,3.56,3.56,0,0,0,0,3.21,2.72,2.72,0,0,0,1,1.09,3.15,3.15,0,0,0,3,0Z"/><path d="M50.19,59h4.28a6.25,6.25,0,0,1,2.94.67,4.88,4.88,0,0,1,2,1.86,5.61,5.61,0,0,1,0,5.45,4.88,4.88,0,0,1-2,1.86,6.24,6.24,0,0,1-2.94.67H50.19Zm4.21,9.54A5.09,5.09,0,0,0,56.82,68a4,4,0,0,0,1.6-1.52,4.64,4.64,0,0,0,0-4.46,4,4,0,0,0-1.6-1.51A5.1,5.1,0,0,0,54.4,60H51.3v8.58Z"/><path d="M69.31,65.91h-6.6a2.82,2.82,0,0,0,.95,2,3.13,3.13,0,0,0,2.16.76,3.41,3.41,0,0,0,1.35-.26,2.94,2.94,0,0,0,1.06-.77l.6.69a3.36,3.36,0,0,1-1.31,1,4.42,4.42,0,0,1-1.73.33,4.37,4.37,0,0,1-2.15-.52,3.74,3.74,0,0,1-1.46-1.43,4.09,4.09,0,0,1-.52-2.07,4.22,4.22,0,0,1,.5-2.07,3.64,3.64,0,0,1,1.38-1.42,3.86,3.86,0,0,1,2-.51,3.81,3.81,0,0,1,2,.51,3.62,3.62,0,0,1,1.37,1.42,4.27,4.27,0,0,1,.5,2.08Zm-5.72-2.69a2.86,2.86,0,0,0-.88,1.9h5.59a2.86,2.86,0,0,0-.88-1.9,2.9,2.9,0,0,0-3.84,0Z"/><path d="M78.07,61.63l-3.51,7.89h-1.1L70,61.63h1.11l3,6.72,3-6.72Z"/><path d="M91.42,69.68,90,68.18a4.58,4.58,0,0,1-3.51,1.43,4.67,4.67,0,0,1-1.82-.34,2.91,2.91,0,0,1-1.25-.95,2.26,2.26,0,0,1-.45-1.39,2.64,2.64,0,0,1,.6-1.7,7.22,7.22,0,0,1,2-1.58,6.2,6.2,0,0,1-1-1.33,2.49,2.49,0,0,1-.29-1.16A2,2,0,0,1,85,59.56a2.88,2.88,0,0,1,1.93-.62,2.69,2.69,0,0,1,1.79.56A1.89,1.89,0,0,1,89.35,61a2.12,2.12,0,0,1-.52,1.4A7.09,7.09,0,0,1,87,63.81l2.88,3a6.69,6.69,0,0,0,.71-2l.87.27a7,7,0,0,1-.93,2.41L92,69Zm-2.08-2.14-3.17-3.25a6.37,6.37,0,0,0-1.72,1.27A2,2,0,0,0,84,66.83a1.63,1.63,0,0,0,.7,1.37,3,3,0,0,0,1.84.52A3.64,3.64,0,0,0,89.34,67.54Zm-3.65-7.41a1.31,1.31,0,0,0-.44,1,1.75,1.75,0,0,0,.24.88,6.38,6.38,0,0,0,.95,1.14A7.29,7.29,0,0,0,88,62.07a1.47,1.47,0,0,0,.44-1,1.2,1.2,0,0,0-.41-1,1.66,1.66,0,0,0-1.12-.35A1.79,1.79,0,0,0,85.69,60.13Z"/><path d="M98.05,59h4.27a6.25,6.25,0,0,1,2.94.67,4.86,4.86,0,0,1,2,1.86,5.61,5.61,0,0,1,0,5.45,4.86,4.86,0,0,1-2,1.86,6.24,6.24,0,0,1-2.94.67H98.05Zm4.21,9.54a5.09,5.09,0,0,0,2.42-.55,4,4,0,0,0,1.61-1.52,4.64,4.64,0,0,0,0-4.46,4,4,0,0,0-1.61-1.51,5.1,5.1,0,0,0-2.42-.55h-3.1v8.58Z"/><path d="M117.18,65.91h-6.6a2.82,2.82,0,0,0,.95,2,3.14,3.14,0,0,0,2.16.76,3.4,3.4,0,0,0,1.35-.26,3,3,0,0,0,1.07-.77l.6.69a3.37,3.37,0,0,1-1.31,1,4.43,4.43,0,0,1-1.73.33,4.37,4.37,0,0,1-2.15-.52A3.72,3.72,0,0,1,110,67.65a4.08,4.08,0,0,1-.53-2.07,4.24,4.24,0,0,1,.5-2.07,3.64,3.64,0,0,1,1.38-1.42,3.85,3.85,0,0,1,2-.51,3.82,3.82,0,0,1,2,.51,3.62,3.62,0,0,1,1.37,1.42,4.27,4.27,0,0,1,.49,2.08Zm-5.72-2.69a2.87,2.87,0,0,0-.88,1.9h5.6a2.87,2.87,0,0,0-.88-1.9,2.9,2.9,0,0,0-3.84,0Z"/><path d="M119.74,69.32a4,4,0,0,1-1.37-.7l.48-.84a4,4,0,0,0,1.25.64,4.91,4.91,0,0,0,1.56.25,3,3,0,0,0,1.6-.34,1.07,1.07,0,0,0,.52-1,.86.86,0,0,0-.29-.68,1.9,1.9,0,0,0-.72-.37,10.72,10.72,0,0,0-1.16-.25,13.07,13.07,0,0,1-1.54-.37,2.27,2.27,0,0,1-1-.64,1.78,1.78,0,0,1-.41-1.25,2,2,0,0,1,.83-1.62,3.71,3.71,0,0,1,2.29-.63,6,6,0,0,1,1.53.2,4.19,4.19,0,0,1,1.26.53l-.46.85a4,4,0,0,0-2.33-.67,2.7,2.7,0,0,0-1.54.36,1.1,1.1,0,0,0-.52.95.93.93,0,0,0,.29.72,1.79,1.79,0,0,0,.73.4,11.46,11.46,0,0,0,1.2.26,13.86,13.86,0,0,1,1.52.36,2.21,2.21,0,0,1,1,.62,1.69,1.69,0,0,1,.4,1.2A1.91,1.91,0,0,1,124,69a4.1,4.1,0,0,1-2.39.61A6,6,0,0,1,119.74,69.32Z"/><path d="M126.87,59.68a.74.74,0,0,1-.23-.54.72.72,0,0,1,.23-.52.75.75,0,0,1,.55-.23.77.77,0,0,1,.55.22.69.69,0,0,1,.22.52.78.78,0,0,1-1.33.56Zm0,1.95h1.07v7.89h-1.07Z"/><path d="M138.31,61.63v6.93a4,4,0,0,1-1,3,4.07,4.07,0,0,1-3,1,6.62,6.62,0,0,1-2.08-.32,4.27,4.27,0,0,1-1.6-.89l.54-.81a4,4,0,0,0,1.39.79,5.17,5.17,0,0,0,1.72.29,3,3,0,0,0,2.21-.7,2.93,2.93,0,0,0,.71-2.17v-1a3.21,3.21,0,0,1-1.3,1.14,4,4,0,0,1-1.78.39,4.19,4.19,0,0,1-2-.49,3.61,3.61,0,0,1-1.43-1.36,3.85,3.85,0,0,1-.52-2,3.8,3.8,0,0,1,.52-2A3.59,3.59,0,0,1,132.15,62a4.23,4.23,0,0,1,2-.48A4,4,0,0,1,136,62a3.27,3.27,0,0,1,1.3,1.17V61.63Zm-2.49,6.28a2.65,2.65,0,0,0,1.07-1,2.94,2.94,0,0,0,.38-1.5,2.91,2.91,0,0,0-.38-1.49,2.68,2.68,0,0,0-1.07-1,3.21,3.21,0,0,0-1.55-.37,3.25,3.25,0,0,0-1.54.36,2.62,2.62,0,0,0-1.06,1,3.13,3.13,0,0,0,0,3,2.66,2.66,0,0,0,1.06,1,3.18,3.18,0,0,0,1.54.37A3.22,3.22,0,0,0,135.82,67.91Z"/><path d="M147.77,62.43a3.37,3.37,0,0,1,.88,2.51v4.58h-1.06V65a2.61,2.61,0,0,0-.62-1.87,2.31,2.31,0,0,0-1.76-.64,2.7,2.7,0,0,0-2,.76,2.86,2.86,0,0,0-.74,2.09v4.14h-1.06V61.63h1v1.46A3,3,0,0,1,143.61,62a3.86,3.86,0,0,1,1.79-.4A3.23,3.23,0,0,1,147.77,62.43Z"/><path class="cls-1" d="M158.28,65v.9h-.51q-.67,0-.67.76v3.81a1.78,1.78,0,0,1-2,2h-.57v-.89h.41q1.14,0,1.14-1.2V66.64a1.61,1.61,0,0,1,.17-.82,1,1,0,0,1,.54-.41,1,1,0,0,1-.54-.41,1.61,1.61,0,0,1-.17-.82V60.48q0-1.2-1.14-1.2h-.41v-.88h.57a1.78,1.78,0,0,1,2,2v3.81q0,.77.67.77Z"/><path class="cls-1" d="M63.34,36.57V11.37a8.28,8.28,0,0,1,.92-3.9,8.38,8.38,0,0,1,2.58-2.92A11.58,11.58,0,0,1,70.7,2.81a35.56,35.56,0,0,1,4.7-.49v-2a40,40,0,0,0-6.91.83,16.6,16.6,0,0,0-5.28,2.37A10.4,10.4,0,0,0,60,7a9.55,9.55,0,0,0-1.11,4.6V36.29A9.56,9.56,0,0,0,60,40.89a10.41,10.41,0,0,0,3.21,3.55,16.6,16.6,0,0,0,5.28,2.37,40,40,0,0,0,6.91.83v-2c-3-.18-6.79-.9-8.62-2.19A7.94,7.94,0,0,1,63.34,36.57Z"/><line x1="105" y1="15.24" x2="105" y2="15.42"/><path class="cls-1" d="M100.75,15.24V11.62A9.55,9.55,0,0,0,99.64,7a10.4,10.4,0,0,0-3.21-3.55,16.6,16.6,0,0,0-5.28-2.37,41.5,41.5,0,0,0-7-.83v2a37.61,37.61,0,0,1,4.83.5,11.58,11.58,0,0,1,3.87,1.73A8.38,8.38,0,0,1,95.4,7.46a8.28,8.28,0,0,1,.92,3.9v3.88"/><line x1="109.44" y1="15.42" x2="109.44" y2="15.24"/><path class="cls-1" d="M96.31,28v8.53a7.94,7.94,0,0,1-3.45,6.85c-1.83,1.29-5.72,2-8.75,2.19v2a41.5,41.5,0,0,0,7-.83,16.6,16.6,0,0,0,5.28-2.37,10.41,10.41,0,0,0,3.21-3.55,9.56,9.56,0,0,0,1.11-4.6V28"/><line x1="105" y1="28.05" x2="105" y2="28.14"/><rect x="117.93" y="36.84" width="20.86" height="4.21"/><rect x="117.93" y="23.93" width="20.86" height="4.21"/><rect x="79.89" y="23.93" width="20.86" height="4.21"/><polygon points="0 0.25 0 47.66 4.21 47.66 4.21 5.69 36.75 47.66 41.72 47.66 41.72 0.25 37.51 0.25 37.51 42.23 4.97 0.25 0 0.25"/><polygon points="138.82 3.98 155.67 47.66 159.66 47.66 141.38 0.25 136.23 0.25 130.45 15.22 134.46 15.21 138.82 3.98"/><path d="M160,47.91H155.5l-.06-.16L138.82,4.68l-4.2,10.78h-4.54l6-15.47h5.49l.06.16Zm-4.18-.5h3.46L141.2.5h-4.8L130.82,15h3.47l4.54-11.67Z"/><path d="M101.83,9"/><path d="M99.3,36.17"/></g></g></svg>