<svg xmlns="http://www.w3.org/2000/svg" viewBox="0 0 259.18 117.55"><defs><style>.cls-1{font-size:62.74px;fill:#00a7b6;stroke:#00a7b6;stroke-miterlimit:10;font-family:Aldrich-Regular, Aldrich;}.cls-2{fill:none;}.cls-3{font-size:63px;}.cls-3,.cls-4{font-family:Montserrat-Regular, Montserrat;}.cls-4{font-size:30px;letter-spacing:0.03em;}.cls-5{letter-spacing:0.02em;}.cls-6{letter-spacing:0.03em;}</style></defs><title>Asset 10</title><g id="Layer_2" data-name="Layer 2"><g id="Layer_1-2" data-name="Layer 1"><text class="cls-1" transform="translate(34.22 58.78)">{</text><rect y="12.72" width="8.55" height="59.32"/><path d="M9.46,12.72c-.92,0-1.83,0-2.75,0L1.59,16.45,39.8,68.88h1V55.79C35.69,48.43,14.23,19.22,9.46,12.72Z"/><rect class="cls-2" y="11.42" width="62.58" height="62.58"/><rect x="250.63" y="12.35" width="8.55" height="59.32"/><path d="M249.72,71.66c.92,0,1.83,0,2.75,0l5.12-3.73L219.38,15.51h-1V28.59C223.48,36,244.94,65.17,249.72,71.66Z"/><rect class="cls-2" x="186.53" y="10.92" width="62.58" height="62.58" transform="translate(435.63 84.42) rotate(180)"/><text class="cls-1" transform="translate(224.53 25.28) rotate(180)">{</text><rect class="cls-2" x="196.6" y="11.25" width="62.58" height="62.58"/><text class="cls-3" transform="translate(58.89 71.53)">atha</text><text class="cls-4" transform="translate(54.73 109.69)">Gur - A<tspan class="cls-5" x="110.82" y="0">r</tspan><tspan class="cls-6" x="123.57" y="0">ie</tspan></text></g></g></svg>